<svg width="134" height="134" viewBox="0 0 134 134" fill="none" xmlns="http://www.w3.org/2000/svg">
<circle cx="67" cy="67" r="67" fill="white"/>
<circle cx="67" cy="67" r="61" fill="#4DA96D"/>
<line x1="43.9864" y1="69.3403" x2="57.22" y2="109.201" stroke="white" stroke-width="4"/>
<line x1="46.0029" y1="62" x2="90.0029" y2="62.0643" stroke="white" stroke-width="4"/>
<line x1="54.9929" y1="108.071" x2="79.9927" y2="107.982" stroke="white" stroke-width="4"/>
<line x1="54.9929" y1="108.071" x2="79.9927" y2="107.982" stroke="white" stroke-width="4"/>
<line x1="44.046" y1="60.0092" x2="44" y2="70.0091" stroke="white" stroke-width="4"/>
<line y1="-2" x2="42" y2="-2" transform="matrix(-0.315086 0.949063 0.949063 0.315086 92.2336 69.9705)" stroke="white" stroke-width="4"/>
<line y1="-2" x2="10" y2="-2" transform="matrix(0.00459641 0.999989 0.999989 -0.00459641 92.2759 60)" stroke="white" stroke-width="4"/>
<line x1="47.5" y1="61" x2="47.5" y2="49" stroke="white"/>
<line x1="44.5" y1="46.4" x2="44.5" y2="38" stroke="white"/>
<line x1="47.598" y1="49.3377" x2="44.3632" y2="46.0672" stroke="white"/>
<line x1="52.5" y1="60" x2="52.5" y2="48" stroke="white"/>
<line x1="61.5" y1="60" x2="61.5" y2="38" stroke="white"/>
<line x1="65.5" y1="61" x2="65.5" y2="49" stroke="white"/>
<line x1="70.5" y1="61" x2="70.5" y2="55" stroke="white"/>
<line x1="83.5" y1="61" x2="83.5" y2="44" stroke="white"/>
<circle cx="44.5" cy="37.5" r="2.5" fill="white"/>
<line y1="-0.5" x2="12" y2="-0.5" transform="matrix(0 -1 -1 0 86 60)" stroke="white"/>
<line y1="-0.5" x2="8.4" y2="-0.5" transform="matrix(0 -1 -1 0 89 45.4)" stroke="white"/>
<line y1="-0.5" x2="4.6" y2="-0.5" transform="matrix(0.70322 -0.710972 -0.710972 -0.70322 86.0465 47.9861)" stroke="white"/>
<circle r="2.5" transform="matrix(-1 0 0 1 89.5 36.5)" fill="white"/>
<line y1="-0.5" x2="8.4" y2="-0.5" transform="matrix(0 -1 -1 0 67.9535 46.4)" stroke="white"/>
<line y1="-0.5" x2="4.6" y2="-0.5" transform="matrix(0.70322 -0.710972 -0.710972 -0.70322 65 48.9861)" stroke="white"/>
<circle r="2.5" transform="matrix(-1 0 0 1 68.4535 37.5)" fill="white"/>
<line y1="-0.5" x2="12" y2="-0.5" transform="matrix(0 -1 -1 0 77 60)" stroke="white"/>
<circle cx="77.5" cy="46.5" r="2.5" fill="white"/>
<line y1="-0.5" x2="23" y2="-0.5" transform="matrix(0 -1 -1 0 72.9535 52.4)" stroke="white"/>
<line y1="-0.5" x2="4.6" y2="-0.5" transform="matrix(0.70322 -0.710972 -0.710972 -0.70322 70 54.9861)" stroke="white"/>
<circle r="2.5" transform="matrix(-1 0 0 1 73.5 29.5)" fill="white"/>
<line x1="58.5" y1="35.4" x2="58.5" y2="27" stroke="white"/>
<line x1="61.598" y1="38.3377" x2="58.3632" y2="35.0672" stroke="white"/>
<circle cx="58.5" cy="26.5" r="2.5" fill="white"/>
<line x1="80.5" y1="41.4" x2="80.5" y2="33" stroke="white"/>
<line x1="83.598" y1="44.3377" x2="80.3632" y2="41.0672" stroke="white"/>
<circle cx="80.5" cy="32.5" r="2.5" fill="white"/>
<line x1="49.5" y1="45.4" x2="49.5" y2="29" stroke="white"/>
<line x1="52.598" y1="48.3377" x2="49.3632" y2="45.0672" stroke="white"/>
<circle cx="49.5" cy="28.5" r="2.5" fill="white"/>
<line x1="56.5" y1="60.4" x2="56.5" y2="44" stroke="white"/>
<circle cx="56.5" cy="43.5" r="2.5" fill="white"/>
<rect x="57" y="64" width="19" height="42" fill="#CD724B"/>
<rect x="45" y="66.37" width="19" height="42" transform="rotate(-16.4172 45 66.37)" fill="#CD724B"/>
<rect x="70.8423" y="61.854" width="19" height="44.2983" transform="rotate(17.4956 70.8423 61.854)" fill="#CD724B"/>
<rect x="88.9848" y="63.1498" width="16.3309" height="43.9294" transform="rotate(90.1953 88.9848 63.1498)" fill="#CD724B"/>
<line x1="43.8974" y1="69.3676" x2="57.1777" y2="109.213" stroke="white" stroke-width="4"/>
<line x1="55.0015" y1="108.025" x2="80.0015" y2="108.044" stroke="white" stroke-width="4"/>
<line x1="45.0015" y1="62" x2="89.0015" y2="62.0332" stroke="white" stroke-width="4"/>
<line x1="44.0255" y1="60.0051" x2="44" y2="70.0051" stroke="white" stroke-width="4"/>
<line y1="-2" x2="42" y2="-2" transform="matrix(-0.316197 0.948694 0.948694 0.316197 92.2803 70)" stroke="white" stroke-width="4"/>
<line y1="-2" x2="10" y2="-2" transform="matrix(0.00255067 0.999997 0.999997 -0.00255067 92.2548 60)" stroke="white" stroke-width="4"/>
</svg>
